<svg width="26" height="26" viewBox="0 0 26 26" fill="none" xmlns="http://www.w3.org/2000/svg">
<rect width="26" height="26" rx="13" fill="#F0F0F3"/>
<path d="M17.8235 10.9529L18.8257 9.95074C19.1797 9.59674 19.375 9.12585 19.375 8.62506C19.375 8.12427 19.1797 7.65338 18.8257 7.29938C18.0945 6.56818 16.9055 6.56818 16.1743 7.29938L12.9734 10.5001H8.75C7.02698 10.5001 5.625 11.902 5.625 13.6251V16.1251C5.625 17.8481 7.02698 19.2501 8.75 19.2501H16.25C17.973 19.2501 19.375 17.8481 19.375 16.1251V13.6251C19.375 12.4799 18.7463 11.4937 17.8235 10.9529ZM17.0581 8.18317C17.1802 8.0614 17.3401 8.00037 17.5 8.00037C17.6599 8.00037 17.8198 8.0614 17.9419 8.18347C18.0603 8.30127 18.125 8.45813 18.125 8.62506C18.125 8.79199 18.0603 8.94885 17.9419 9.06665L14.3866 12.6219C14.2896 12.7193 14.1614 12.7822 14.0247 12.7999L13.2227 12.9024L13.3258 12.0995C13.3429 11.9637 13.4058 11.8352 13.5034 11.7379L17.0581 8.18317ZM18.125 16.1251C18.125 17.159 17.2839 18.0001 16.25 18.0001H8.75C7.71606 18.0001 6.875 17.159 6.875 16.1251V13.6251C6.875 12.5911 7.71606 11.7501 8.75 11.7501H12.1264C12.1113 11.8137 12.0938 11.8767 12.0856 11.9417L11.8799 13.5457C11.8555 13.7377 11.9214 13.9302 12.0581 14.067C12.1759 14.1851 12.3352 14.2501 12.5 14.2501C12.5262 14.2501 12.5531 14.2485 12.5793 14.2449L14.1833 14.0395C14.5929 13.9873 14.9792 13.7975 15.271 13.5054L16.8955 11.8809C17.61 12.1442 18.125 12.8199 18.125 13.6251L18.125 16.1251ZM16.25 16.1251C16.25 16.4702 15.9705 16.7501 15.625 16.7501H9.375C9.02954 16.7501 8.75 16.4702 8.75 16.1251C8.75 15.7799 9.02954 15.5001 9.375 15.5001H15.625C15.9705 15.5001 16.25 15.7799 16.25 16.1251ZM8.75 13.6251C8.75 13.2799 9.02954 13.0001 9.375 13.0001H10C10.3455 13.0001 10.625 13.2799 10.625 13.6251C10.625 13.9702 10.3455 14.2501 10 14.2501H9.375C9.02954 14.2501 8.75 13.9702 8.75 13.6251Z" fill="#2A2C31"/>
</svg>
