<svg width="55" height="55" viewBox="0 0 55 55" fill="none" xmlns="http://www.w3.org/2000/svg">
<rect x="0.5" y="0.5" width="54" height="54" rx="27" stroke="#ACB1C6"/>
<path d="M35.3574 29.585C35.9858 29.5851 36.4999 30.1018 36.5 30.7334C36.5 33.9153 33.9227 36.5 30.7627 36.5H24.2373C21.0716 36.5 18.5 33.9095 18.5 30.7334C18.5001 30.1018 19.0142 29.5851 19.6426 29.585C20.2711 29.585 20.786 30.1017 20.7861 30.7334C20.7861 32.646 22.3344 34.2031 24.2373 34.2031H30.7627C32.6656 34.2031 34.2139 32.646 34.2139 30.7334C34.214 30.1017 34.7289 29.585 35.3574 29.585ZM27.5166 18.5C28.1852 18.5 28.7285 19.0514 28.7285 19.7119V28.0283L32.2422 24.542C32.7108 24.0768 33.5285 24.0768 33.9971 24.542C34.4827 25.0301 34.4827 25.8056 33.9971 26.2881L28.5225 31.7217C28.3225 31.9341 28.0884 32.1698 27.6543 32.2617C27.5802 32.2846 27.5058 32.2842 27.4316 32.2842C26.9062 32.2842 26.5288 31.9056 26.3857 31.7676V31.7617L21.0254 26.4434C20.7797 26.2021 20.6427 25.8455 20.6484 25.4951C20.6543 25.1449 20.8203 24.8067 21.083 24.5713C21.5972 24.1234 22.3795 24.14 22.8652 24.6221L26.2939 28.0283V19.7119C26.2939 19.04 26.8482 18.5002 27.5166 18.5Z" fill="#2A2C31"/>
</svg>
