<svg width="55" height="55" viewBox="0 0 55 55" fill="none" xmlns="http://www.w3.org/2000/svg">
<rect x="0.5" y="0.5" width="54" height="54" rx="27" stroke="#ACB1C6"/>
<path d="M35.4299 25.3855L33.5 24.0345V21.5C33.5 20.2593 32.4907 19.25 31.25 19.25H23.75C22.5093 19.25 21.5 20.2593 21.5 21.5V24.0345L19.5701 25.3855C19.3694 25.5258 19.25 25.7554 19.25 26V32C19.25 34.0676 20.9324 35.75 23 35.75H32C34.0676 35.75 35.75 34.0676 35.75 32V26C35.75 25.7554 35.6306 25.5258 35.4299 25.3855ZM23.75 20.75H31.25C31.6638 20.75 32 21.0865 32 21.5V27.1844L27.5 30.3345L23 27.1843V21.5C23 21.0865 23.3362 20.75 23.75 20.75ZM32 34.25H23C21.7593 34.25 20.75 33.2407 20.75 32V27.4402L21.8186 28.1883C21.8192 28.1887 21.8195 28.1892 21.8201 28.1896L23.9576 29.6858L23.2197 30.5015C22.9414 30.8087 22.9656 31.283 23.2725 31.5609C23.416 31.6906 23.5962 31.7546 23.7756 31.7546C23.98 31.7546 24.1836 31.6715 24.3315 31.5078L25.1958 30.5526L27.0701 31.8645C27.199 31.955 27.3499 32 27.5 32C27.6501 32 27.801 31.955 27.9299 31.8645L29.8042 30.5526L30.6685 31.5078C30.8164 31.6715 31.02 31.7546 31.2244 31.7546C31.4038 31.7546 31.584 31.6906 31.7275 31.5609C32.0344 31.283 32.0586 30.8087 31.7803 30.5015L31.0424 29.6858L33.1799 28.1896C33.1804 28.1893 33.1807 28.1888 33.1811 28.1885L34.25 27.4403V32C34.25 33.2407 33.2407 34.25 32 34.25ZM24.5 26C24.5 25.5858 24.8354 25.25 25.25 25.25H29.75C30.1646 25.25 30.5 25.5858 30.5 26C30.5 26.4142 30.1646 26.75 29.75 26.75H25.25C24.8354 26.75 24.5 26.4142 24.5 26ZM24.5 23C24.5 22.5858 24.8354 22.25 25.25 22.25H29.75C30.1646 22.25 30.5 22.5858 30.5 23C30.5 23.4142 30.1646 23.75 29.75 23.75H25.25C24.8354 23.75 24.5 23.4142 24.5 23Z" fill="#2A2C31"/>
</svg>
