<svg width="55" height="55" viewBox="0 0 55 55" fill="none" xmlns="http://www.w3.org/2000/svg">
<rect x="0.5" y="0.5" width="54" height="54" rx="27" stroke="#ACB1C6"/>
<path d="M31.0001 24.875C31.0001 22.9447 29.4304 21.375 27.5001 21.375C25.5698 21.375 24.0001 22.9447 24.0001 24.875C24.0001 26.8053 25.5698 28.375 27.5001 28.375C29.4304 28.375 31.0001 26.8053 31.0001 24.875ZM27.5001 26.625C26.5353 26.625 25.7501 25.8398 25.7501 24.875C25.7501 23.9103 26.5353 23.125 27.5001 23.125C28.4648 23.125 29.2501 23.9103 29.2501 24.875C29.2501 25.8398 28.4648 26.625 27.5001 26.625ZM32.7501 35.375H29.3957L30.0772 33.7404C30.6677 32.3228 31.5572 30.9283 32.8748 29.3517C33.9233 28.099 34.5001 26.5088 34.5001 24.875C34.5001 22.7764 33.5704 20.8068 31.9494 19.4704C30.3301 18.1365 28.2033 17.605 26.1021 18.0109C23.284 18.5595 21.0726 20.8384 20.5992 23.6822C20.2693 25.668 20.7624 27.6205 21.986 29.18C23.5156 31.1308 24.4965 32.7167 25.1656 34.3232L25.6043 35.375H22.2501C21.7664 35.375 21.3751 35.7664 21.3751 36.25C21.3751 36.7337 21.7664 37.125 22.2501 37.125H32.7501C33.2337 37.125 33.6251 36.7337 33.6251 36.25C33.6251 35.7664 33.2337 35.375 32.7501 35.375ZM26.7806 33.6498C26.0483 31.8921 24.9947 30.1806 23.3626 28.0999C22.4457 26.9309 22.0774 25.4646 22.3253 23.9693C22.6739 21.8758 24.3649 20.1317 26.4371 19.7284C26.7866 19.6601 27.1378 19.6267 27.4855 19.6267C28.7083 19.6267 29.8901 20.0412 30.8368 20.8213C32.0528 21.8236 32.7501 23.3011 32.7501 24.875C32.7501 26.0995 32.3177 27.2907 31.5324 28.2289C30.0977 29.9447 29.1219 31.4828 28.4622 33.0671L27.5001 35.375L26.7806 33.6498Z" fill="white"/>
</svg>
