<svg width="55" height="55" viewBox="0 0 55 55" fill="none" xmlns="http://www.w3.org/2000/svg">
<rect x="0.5" y="0.5" width="54" height="54" rx="27" stroke="#ACB1C6"/>
<path d="M32.75 19.625H22.25C19.8378 19.625 17.875 21.5878 17.875 24V31C17.875 33.4122 19.8378 35.375 22.25 35.375H32.75C35.1622 35.375 37.125 33.4122 37.125 31V24C37.125 21.5878 35.1622 19.625 32.75 19.625ZM31.0908 27.2289L35.3207 23.4688C35.3561 23.6405 35.375 23.818 35.375 24V31C35.375 31.1595 35.3553 31.314 35.3279 31.4657L31.0908 27.2289ZM32.75 21.375C33.3703 21.375 33.9334 21.6002 34.383 21.9612L28.0815 27.5624C27.7491 27.858 27.2488 27.8563 26.9189 27.5632L20.617 21.9612C21.0667 21.6002 21.6297 21.375 22.25 21.375H32.75ZM19.6721 31.4657C19.6447 31.314 19.625 31.1595 19.625 31V24C19.625 23.818 19.6439 23.6405 19.6793 23.4689L23.909 27.2291L19.6721 31.4657ZM22.25 33.625C21.6186 33.625 21.0465 33.3919 20.5932 33.0192L25.219 28.3937L25.7564 28.8715C26.2533 29.3124 26.8766 29.5328 27.5 29.5328C28.1234 29.5328 28.7467 29.3124 29.244 28.8706L29.7808 28.3935L34.4068 33.0192C33.9535 33.3919 33.3814 33.625 32.75 33.625H22.25Z" fill="white"/>
</svg>
