<svg width="26" height="26" viewBox="0 0 26 26" fill="none" xmlns="http://www.w3.org/2000/svg">
<rect width="26" height="26" rx="13" fill="#F0F0F3"/>
<path d="M17.3636 20.5H10.8182C10.6733 20.5 10.5348 20.4435 10.4325 20.3431L7.1598 17.1288C7.05753 17.0283 7 16.892 7 16.75V9.25C7 8.36377 7.73402 7.64286 8.63636 7.64286H11.3636V6.03571C11.3636 5.73987 11.6076 5.5 11.9091 5.5H14.0909C14.3924 5.5 14.6364 5.73987 14.6364 6.03571V7.64286H17.3636C18.266 7.64286 19 8.36377 19 9.25V18.8929C19 19.7791 18.266 20.5 17.3636 20.5ZM11.3636 19.4286H17.3636C17.6646 19.4286 17.9091 19.1882 17.9091 18.8929V9.25C17.9091 8.95468 17.6646 8.71429 17.3636 8.71429H14.6364V9.78571C14.6364 10.0816 14.3924 10.3214 14.0909 10.3214H11.9091C11.6076 10.3214 11.3636 10.0816 11.3636 9.78571V8.71429H8.63636C8.3354 8.71429 8.09091 8.95468 8.09091 9.25V16.2143H10.2727C10.8741 16.2143 11.3636 16.6948 11.3636 17.2857V19.4286ZM8.86222 17.2857L10.2727 18.671V17.2857H8.86222ZM12.4545 9.25H13.5455V6.57143H12.4545V9.25ZM16.2727 16.75H13C12.6985 16.75 12.4545 16.5101 12.4545 16.2143C12.4545 15.9184 12.6985 15.6786 13 15.6786H16.2727C16.5742 15.6786 16.8182 15.9184 16.8182 16.2143C16.8182 16.5101 16.5742 16.75 16.2727 16.75ZM16.2727 14.6071H9.72727C9.42578 14.6071 9.18182 14.3673 9.18182 14.0714C9.18182 13.7756 9.42578 13.5357 9.72727 13.5357H16.2727C16.5742 13.5357 16.8182 13.7756 16.8182 14.0714C16.8182 14.3673 16.5742 14.6071 16.2727 14.6071ZM16.2727 12.4643H9.72727C9.42578 12.4643 9.18182 12.2244 9.18182 11.9286C9.18182 11.6327 9.42578 11.3929 9.72727 11.3929H16.2727C16.5742 11.3929 16.8182 11.6327 16.8182 11.9286C16.8182 12.2244 16.5742 12.4643 16.2727 12.4643Z" fill="#2A2C31"/>
</svg>
