<svg width="55" height="55" viewBox="0 0 55 55" fill="none" xmlns="http://www.w3.org/2000/svg">
<rect x="0.5" y="0.5" width="54" height="54" rx="27" stroke="#ACB1C6"/>
<path d="M33.45 39.5H21.55C20.1438 39.5 19 38.3465 19 36.9286V21.5C19 20.082 20.1438 18.9286 21.55 18.9286H24.95V16.3571C24.95 15.8838 25.3306 15.5 25.8 15.5H29.2C29.6698 15.5 30.05 15.8838 30.05 16.3571V18.9286H33.45C34.8562 18.9286 36 20.082 36 21.5V36.9286C36 38.3465 34.8562 39.5 33.45 39.5ZM21.55 20.6429C21.0814 20.6429 20.7 21.0275 20.7 21.5V36.9286C20.7 37.4011 21.0814 37.7857 21.55 37.7857H33.45C33.919 37.7857 34.3 37.4011 34.3 36.9286V21.5C34.3 21.0275 33.919 20.6429 33.45 20.6429H30.05V22.3571C30.05 22.8305 29.6698 23.2143 29.2 23.2143H25.8C25.3306 23.2143 24.95 22.8305 24.95 22.3571V20.6429H21.55ZM26.65 21.5H28.35V17.2143H26.65V21.5ZM30.475 35.2143H24.525C24.0556 35.2143 23.675 34.8305 23.675 34.3571V33.0714C23.675 31.7765 24.3108 30.6285 25.2845 29.9287C24.8126 29.3976 24.525 28.6961 24.525 27.9286C24.525 26.2746 25.8598 24.9286 27.5 24.9286C29.1402 24.9286 30.475 26.2746 30.475 27.9286C30.475 28.6961 30.1878 29.3976 29.7155 29.9287C30.6892 30.6285 31.325 31.7765 31.325 33.0714V34.3571C31.325 34.8305 30.9448 35.2143 30.475 35.2143ZM25.375 33.5H29.625V33.0714C29.625 31.8899 28.6721 30.9286 27.5 30.9286C26.3283 30.9286 25.375 31.8899 25.375 33.0714V33.5ZM27.5 26.6429C26.7969 26.6429 26.225 27.2196 26.225 27.9286C26.225 28.6376 26.7969 29.2143 27.5 29.2143C28.2031 29.2143 28.775 28.6376 28.775 27.9286C28.775 27.2196 28.2031 26.6429 27.5 26.6429Z" fill="white"/>
</svg>
