<svg width="55" height="55" viewBox="0 0 55 55" fill="none" xmlns="http://www.w3.org/2000/svg">
<rect x="0.5" y="0.5" width="54" height="54" rx="27" stroke="#ACB1C6"/>
<path d="M26.5557 19C30.7285 19 34.1113 22.4624 34.1113 26.7334C34.1113 28.4179 33.5827 29.975 32.6895 31.2451L35.7236 34.3496C36.0923 34.7271 36.0923 35.3393 35.7236 35.7168C35.3549 36.0943 34.7565 36.0942 34.3877 35.7168L31.4033 32.6631C30.0911 33.7882 28.4013 34.4668 26.5557 34.4668C22.3828 34.4668 19 31.0045 19 26.7334C19.0001 22.4623 22.3829 19 26.5557 19ZM26.5557 20.9336C23.4261 20.9336 20.8887 23.5301 20.8887 26.7334C20.8887 29.9367 23.426 32.5332 26.5557 32.5332C29.6853 32.5332 32.2227 29.9367 32.2227 26.7334C32.2226 23.5301 29.6852 20.9336 26.5557 20.9336Z" fill="#2A2C31"/>
</svg>
