<svg width="55" height="55" viewBox="0 0 55 55" fill="none" xmlns="http://www.w3.org/2000/svg">
<rect x="0.5" y="0.5" width="54" height="54" rx="27" stroke="#ACB1C6"/>
<path d="M34.9661 27.3299C34.8681 26.8522 34.6096 26.5998 34.3778 26.3835L28.468 20.3988C27.9421 19.8671 27.0953 19.8671 26.5694 20.3988C26.3109 20.6512 26.1772 20.9937 26.1772 21.3632C26.1772 21.7237 26.3198 22.0662 26.5694 22.3276L30.3667 26.1672H21.3103C20.5883 26.1672 20 26.7621 20 27.5011C20 28.2402 20.5883 28.826 21.3103 28.826H30.3667L26.6586 32.5755C26.1326 33.1073 26.1148 33.9635 26.6051 34.5223C26.8636 34.8107 27.229 34.991 27.6123 35H27.6569C28.0313 35 28.3789 34.8558 28.6463 34.5854L34.4402 28.7269C34.6096 28.5557 35.1177 28.0419 34.9751 27.3389L34.9661 27.3299Z" fill="#2A2C31"/>
</svg>
