<svg width="55" height="55" viewBox="0 0 55 55" fill="none" xmlns="http://www.w3.org/2000/svg">
<rect width="55" height="55" rx="27.5" fill="#273D89"/>
<path d="M26.9931 35.5C22.5136 35.5 18.7079 31.915 16.8383 29.7783C15.7206 28.501 15.7206 26.499 16.8378 25.2217C18.7079 23.085 22.5136 19.5 26.9931 19.5C31.4716 19.5 35.2773 23.085 37.1484 25.2217C38.2656 26.499 38.2656 28.501 37.1484 29.7783C35.2773 31.915 31.4716 35.5 26.9931 35.5ZM26.9931 21.5C23.3032 21.5 19.9897 24.6563 18.3432 26.5381C17.8798 27.0684 17.8798 27.9316 18.3437 28.4619C19.9897 30.3438 23.3032 33.5 26.9931 33.5C30.6816 33.5 33.996 30.3428 35.6425 28.4619C36.1064 27.9316 36.1064 27.0684 35.6425 26.5381C33.996 24.6563 30.6816 21.5 26.9931 21.5ZM26.9931 31.5C24.7875 31.5 22.9931 29.7061 22.9931 27.5C22.9931 25.2939 24.7875 23.5 26.9931 23.5C29.1992 23.5 30.9931 25.2939 30.9931 27.5C30.9931 29.7061 29.1992 31.5 26.9931 31.5ZM26.9931 25.5C25.8901 25.5 24.9931 26.3975 24.9931 27.5C24.9931 28.6025 25.8901 29.5 26.9931 29.5C28.0956 29.5 28.9931 28.6025 28.9931 27.5C28.9931 26.3975 28.0956 25.5 26.9931 25.5Z" fill="white"/>
</svg>
