<svg width="40" height="40" viewBox="0 0 40 40" fill="none" xmlns="http://www.w3.org/2000/svg">
<rect width="40" height="40" rx="15" fill="#F5F7FF"/>
<path d="M26.9684 19.8412C26.8769 19.3954 26.6356 19.1598 26.4193 18.9579L20.9035 13.3722C20.4127 12.8759 19.6223 12.8759 19.1315 13.3722C18.8902 13.6078 18.7654 13.9274 18.7654 14.2723C18.7654 14.6088 18.8985 14.9285 19.1315 15.1725L22.6755 18.756H14.223C13.5491 18.756 13 19.3113 13 20.0011C13 20.6909 13.5491 21.2376 14.223 21.2376H22.6755L19.2146 24.7371C18.7238 25.2334 18.7072 26.0326 19.1647 26.5542C19.406 26.8233 19.7471 26.9916 20.1048 27H20.1464C20.4958 27 20.8203 26.8654 21.0699 26.613L26.4775 21.1451C26.6356 20.9853 27.1098 20.5058 26.9767 19.8496L26.9684 19.8412Z" fill="#273D89"/>
</svg>
